<svg width="28" height="28" viewBox="0 0 28 28" fill="none" xmlns="http://www.w3.org/2000/svg">
<path d="M13.8426 13.4385L2.74707 24.9748C3.08799 26.2328 4.26573 27.1532 5.62943 27.1532C6.1873 27.1532 6.71418 26.9998 7.14809 26.7544L7.17908 26.7237L19.6383 19.6669L13.8426 13.4385Z" fill="#EA4335"/>
<path d="M25.0622 11.4748L19.6694 8.40663L13.5947 13.6839L19.6694 19.6669L25.0312 16.6294C25.961 16.1384 26.6118 15.1566 26.6118 14.0521C26.6118 12.9169 25.992 11.9657 25.0622 11.4748Z" fill="#FBBC04"/>
<path d="M2.74728 3.068C2.68529 3.31346 2.6543 3.55891 2.6543 3.83505V24.2078C2.6543 24.5146 2.68529 24.7294 2.74728 24.9748L14.2147 13.7453L2.74728 3.068Z" fill="#4285F4"/>
<path d="M13.9358 14.0214L19.6695 8.40664L7.21033 1.31914C6.74543 1.043 6.21855 0.889594 5.66068 0.889594C4.26599 0.889594 3.11924 1.81005 2.77832 3.068L13.9358 14.0214Z" fill="#34A853"/>
</svg>
