<svg width="28" height="28" viewBox="0 0 28 28" fill="none" xmlns="http://www.w3.org/2000/svg">
<g clip-path="url(#clip0_268_6808)">
<path d="M22.344 0H5.656C2.5305 0 0 2.5305 0 5.656V22.3475C0 25.4695 2.5305 28 5.656 28H22.3475C25.4695 28 28.0035 25.4695 28.0035 22.344V5.656C28 2.5305 25.4695 0 22.344 0Z" fill="url(#paint0_linear_268_6808)"/>
<path d="M13.8814 6.433L14.4484 5.453C14.7984 4.8405 15.5789 4.634 16.1914 4.984C16.8039 5.334 17.0104 6.1145 16.6604 6.727L11.1969 16.184H15.1484C16.4294 16.184 17.1469 17.689 16.5904 18.732H5.00545C4.29845 18.732 3.73145 18.165 3.73145 17.458C3.73145 16.751 4.29845 16.184 5.00545 16.184H8.25345L12.4114 8.9775L11.1129 6.7235C10.7629 6.111 10.9694 5.3375 11.5819 4.9805C12.1944 4.6305 12.9679 4.837 13.3249 5.4495L13.8814 6.433ZM8.96745 20.0445L7.74245 22.169C7.39245 22.7815 6.61195 22.988 5.99945 22.638C5.38695 22.288 5.18045 21.5075 5.53045 20.895L6.44045 19.32C7.46945 19.0015 8.30595 19.2465 8.96745 20.0445ZM19.5164 16.191H22.8309C23.5379 16.191 24.1049 16.758 24.1049 17.465C24.1049 18.172 23.5379 18.739 22.8309 18.739H20.9899L22.2324 20.895C22.5824 21.5075 22.3759 22.281 21.7634 22.638C21.1509 22.988 20.3774 22.7815 20.0204 22.169C17.9274 18.5395 16.3559 15.8235 15.3129 14.014C14.2454 12.173 15.0084 10.325 15.7609 9.6985C16.5974 11.1335 17.8469 13.3 19.5164 16.191Z" fill="white"/>
</g>
<defs>
<linearGradient id="paint0_linear_268_6808" x1="14.0017" y1="0" x2="14.0017" y2="28" gradientUnits="userSpaceOnUse">
<stop stop-color="#18BFFB"/>
<stop offset="1" stop-color="#2072F3"/>
</linearGradient>
<clipPath id="clip0_268_6808">
<rect width="28" height="28" fill="white"/>
</clipPath>
</defs>
</svg>
