<svg width="28" height="28" viewBox="0 0 28 28" fill="none" xmlns="http://www.w3.org/2000/svg">
<g clip-path="url(#clip0_268_6800)">
<path d="M14 28C21.732 28 28 21.732 28 14C28 6.26801 21.732 0 14 0C6.26801 0 0 6.26801 0 14C0 21.732 6.26801 28 14 28Z" fill="#7D2AE7"/>
<path d="M14 28C21.732 28 28 21.732 28 14C28 6.26801 21.732 0 14 0C6.26801 0 0 6.26801 0 14C0 21.732 6.26801 28 14 28Z" fill="url(#paint0_radial_268_6800)"/>
<path d="M14 28C21.732 28 28 21.732 28 14C28 6.26801 21.732 0 14 0C6.26801 0 0 6.26801 0 14C0 21.732 6.26801 28 14 28Z" fill="url(#paint1_radial_268_6800)"/>
<path d="M14 28C21.732 28 28 21.732 28 14C28 6.26801 21.732 0 14 0C6.26801 0 0 6.26801 0 14C0 21.732 6.26801 28 14 28Z" fill="url(#paint2_radial_268_6800)"/>
<path d="M14 28C21.732 28 28 21.732 28 14C28 6.26801 21.732 0 14 0C6.26801 0 0 6.26801 0 14C0 21.732 6.26801 28 14 28Z" fill="url(#paint3_radial_268_6800)"/>
<path d="M20.0445 16.8719C19.929 16.8719 19.8273 16.9695 19.7215 17.1826C18.5266 19.6055 16.4629 21.3198 14.0747 21.3198C11.3133 21.3198 9.60326 18.8271 9.60326 15.3833C9.60326 9.55 12.8534 6.17729 15.7082 6.17729C17.0422 6.17729 17.8568 7.01559 17.8568 8.34964C17.8568 9.93296 16.9573 10.7713 16.9573 11.3297C16.9573 11.5803 17.1132 11.7321 17.4224 11.7321C18.6645 11.7321 20.1225 10.3048 20.1225 8.28837C20.1225 6.33325 18.4208 4.89615 15.5661 4.89615C10.8482 4.89615 6.65527 9.27011 6.65527 15.322C6.65527 20.0066 9.33033 23.1022 13.4578 23.1022C17.8387 23.1022 20.3718 18.7435 20.3718 17.3288C20.3718 17.0155 20.2116 16.8719 20.0445 16.8719Z" fill="white"/>
</g>
<defs>
<radialGradient id="paint0_radial_268_6800" cx="0" cy="0" r="1" gradientUnits="userSpaceOnUse" gradientTransform="translate(5.40855 24.817) rotate(-49.416) scale(21.6556)">
<stop stop-color="#6420FF"/>
<stop offset="1" stop-color="#6420FF" stop-opacity="0"/>
</radialGradient>
<radialGradient id="paint1_radial_268_6800" cx="0" cy="0" r="1" gradientUnits="userSpaceOnUse" gradientTransform="translate(7.41258 3.1831) rotate(54.703) scale(24.4207)">
<stop stop-color="#00C4CC"/>
<stop offset="1" stop-color="#00C4CC" stop-opacity="0"/>
</radialGradient>
<radialGradient id="paint2_radial_268_6800" cx="0" cy="0" r="1" gradientUnits="userSpaceOnUse" gradientTransform="translate(5.40842 24.8168) rotate(-45.1954) scale(21.3935 9.83914)">
<stop stop-color="#6420FF"/>
<stop offset="1" stop-color="#6420FF" stop-opacity="0"/>
</radialGradient>
<radialGradient id="paint3_radial_268_6800" cx="0" cy="0" r="1" gradientUnits="userSpaceOnUse" gradientTransform="translate(11.4505 3.77263) rotate(66.5198) scale(22.0443 36.9291)">
<stop stop-color="#00C4CC" stop-opacity="0.725916"/>
<stop offset="0.0001" stop-color="#00C4CC"/>
<stop offset="1" stop-color="#00C4CC" stop-opacity="0"/>
</radialGradient>
<clipPath id="clip0_268_6800">
<rect width="28" height="28" fill="white"/>
</clipPath>
</defs>
</svg>
