<svg width="16" height="16" viewBox="0 0 16 16" fill="none" xmlns="http://www.w3.org/2000/svg">
<path d="M14.6667 7.26666V2.73333C14.6667 1.73333 14.24 1.33333 13.18 1.33333H10.4867C9.42667 1.33333 9 1.73333 9 2.73333V7.26666C9 8.26666 9.42667 8.66666 10.4867 8.66666H13.18C14.24 8.66666 14.6667 8.26666 14.6667 7.26666Z" stroke="#E6E6E6" stroke-linecap="round" stroke-linejoin="round"/>
<path d="M14.6667 13.2667V12.0667C14.6667 11.0667 14.24 10.6667 13.18 10.6667H10.4867C9.42667 10.6667 9 11.0667 9 12.0667V13.2667C9 14.2667 9.42667 14.6667 10.4867 14.6667H13.18C14.24 14.6667 14.6667 14.2667 14.6667 13.2667Z" stroke="#E6E6E6" stroke-linecap="round" stroke-linejoin="round"/>
<path d="M7.00016 8.73333V13.2667C7.00016 14.2667 6.5735 14.6667 5.5135 14.6667H2.82016C1.76016 14.6667 1.3335 14.2667 1.3335 13.2667V8.73333C1.3335 7.73333 1.76016 7.33333 2.82016 7.33333H5.5135C6.5735 7.33333 7.00016 7.73333 7.00016 8.73333Z" stroke="#E6E6E6" stroke-linecap="round" stroke-linejoin="round"/>
<path d="M7.00016 2.73333V3.93333C7.00016 4.93333 6.5735 5.33333 5.5135 5.33333H2.82016C1.76016 5.33333 1.3335 4.93333 1.3335 3.93333V2.73333C1.3335 1.73333 1.76016 1.33333 2.82016 1.33333H5.5135C6.5735 1.33333 7.00016 1.73333 7.00016 2.73333Z" stroke="#E6E6E6" stroke-linecap="round" stroke-linejoin="round"/>
</svg>
