<svg width="12" height="12" viewBox="0 0 12 12" fill="none" xmlns="http://www.w3.org/2000/svg">
<path d="M4.25 9.5H4C2 9.5 1 9 1 6.5V4C1 2 2 1 4 1H8C10 1 11 2 11 4V6.5C11 8.5 10 9.5 8 9.5H7.75C7.595 9.5 7.445 9.575 7.35 9.7L6.6 10.7C6.27 11.14 5.73 11.14 5.4 10.7L4.65 9.7C4.57 9.59 4.385 9.5 4.25 9.5Z" stroke="#F5F5F5" stroke-width="0.5" stroke-miterlimit="10" stroke-linecap="round" stroke-linejoin="round"/>
<path d="M3.5 4H8.5" stroke="white" stroke-width="0.5" stroke-linecap="round" stroke-linejoin="round"/>
<path d="M3.5 6.5H6.5" stroke="#F5F5F5" stroke-width="0.5" stroke-linecap="round" stroke-linejoin="round"/>
</svg>
