<svg width="28" height="28" viewBox="0 0 28 28" fill="none" xmlns="http://www.w3.org/2000/svg">
<g clip-path="url(#clip0_268_6787)">
<rect x="5" y="9" width="12" height="15" fill="white"/>
<path fill-rule="evenodd" clip-rule="evenodd" d="M19.7441 4.0802C20.203 4.53805 20.7229 5.05664 20.7229 5.05664C20.7229 5.05664 22.8639 5.21586 22.9649 5.22461C23.0668 5.23336 23.1896 5.31125 23.2087 5.45212C23.2279 5.593 26.25 26.1284 26.25 26.1284L18.8341 27.7404L19.7441 4.0802ZM18.6065 3.30236C18.5497 3.30972 18.5004 3.32094 18.4661 3.33113C18.4479 3.33638 18.1414 3.43176 17.6338 3.58926C17.1366 2.15251 16.2598 0.832133 14.7179 0.832133C14.6752 0.832133 14.6308 0.833888 14.5873 0.836513C14.1484 0.253763 13.6051 4.76837e-07 13.1358 4.76837e-07C9.54256 4.76837e-07 7.82559 4.51501 7.28751 6.80838C5.89094 7.24326 4.89925 7.55213 4.773 7.59238C3.99287 7.83825 3.96849 7.86277 3.86662 8.60039C3.78913 9.15952 1.75 25.0084 1.75 25.0084L17.6399 28L17.6568 27.9963L18.6065 3.30236ZM14.4697 4.41701C14.4697 4.47214 14.4689 4.52288 14.4689 4.57363C13.5938 4.84576 12.6439 5.14151 11.6914 5.43813C12.226 3.36438 13.2281 2.36249 14.1049 1.98449C14.3252 2.54099 14.4697 3.33989 14.4697 4.41701ZM13.0366 0.968639C13.1924 0.968639 13.3483 1.02201 13.4981 1.12526C12.3462 1.66951 11.1124 3.0415 10.5909 5.78025C9.82902 6.01737 9.08459 6.24925 8.39588 6.46363C9.00623 4.37413 10.4559 0.968639 13.0366 0.968639ZM13.6556 13.1793C13.6556 13.1793 12.7258 12.6805 11.586 12.6805C9.91434 12.6805 9.82989 13.7349 9.82989 14C9.82989 15.4499 13.5895 16.0055 13.5895 19.4005C13.5895 22.071 11.9038 23.7912 9.6305 23.7912C6.90267 23.7912 5.50784 22.085 5.50784 22.085L6.23834 19.6604C6.23834 19.6604 7.67235 20.8976 8.88259 20.8976C9.67229 20.8976 9.99444 20.272 9.99444 19.8152C9.99444 17.9244 6.90964 17.8395 6.90964 14.7324C6.90964 12.1179 8.77724 9.58737 12.5473 9.58737C13.9996 9.58737 14.7179 10.0056 14.7179 10.0056L13.6556 13.1793ZM15.4109 4.28051C15.4109 4.18513 15.4118 4.0915 15.4118 3.98913C15.4118 3.09663 15.2882 2.37737 15.0905 1.80775C15.8855 1.9075 16.4148 2.81661 16.7553 3.86223C16.3565 3.98648 15.9029 4.12738 15.4109 4.28051Z" fill="#81BF37"/>
</g>
<defs>
<clipPath id="clip0_268_6787">
<rect width="28" height="28" fill="white"/>
</clipPath>
</defs>
</svg>
