<svg width="28" height="28" viewBox="0 0 28 28" fill="none" xmlns="http://www.w3.org/2000/svg">
<path d="M4.01145 15.8725C4.09661 15.5447 4.18528 15.2192 4.27045 14.8902C4.60178 13.6267 4.92961 12.3585 5.26795 11.0938C5.39045 10.5782 5.57011 10.1243 5.80345 9.7055L5.78945 9.7335C6.04028 9.30067 6.46961 8.99617 6.97478 8.918L6.98411 8.91683C7.10195 8.89 7.23845 8.87483 7.37845 8.87483C7.92328 8.87483 8.41328 9.10583 8.75745 9.47566L8.75861 9.47683C8.91728 9.65883 9.04211 9.87466 9.12028 10.1115L9.12378 10.1243C9.33961 10.6983 9.56361 11.4368 9.74794 12.1917L9.77711 12.3363C10.0812 13.489 10.3869 14.6424 10.6941 15.7967C10.7011 15.8235 10.6941 15.855 10.7326 15.8783C10.7979 15.6193 10.8679 15.3627 10.9333 15.1072C11.3299 13.5617 11.7258 12.0178 12.1209 10.4755C12.1933 10.1862 12.2679 9.898 12.3438 9.60867C12.4009 9.39283 12.4884 9.205 12.6028 9.03583L12.5981 9.04283C12.7719 8.785 13.0414 8.60417 13.3553 8.5505L13.3623 8.54933C13.7274 8.4735 14.1486 8.42917 14.5803 8.428H14.5814C14.6666 8.428 14.6818 8.44783 14.6631 8.52833C14.3007 9.912 13.9398 11.2957 13.5804 12.6793C13.0484 14.7257 12.5153 16.7708 11.9809 18.8148C11.9273 19.0155 11.8771 19.2197 11.8234 19.4192C11.8118 19.4577 11.8071 19.4915 11.7546 19.4962C11.6729 19.5043 11.5784 19.509 11.4816 19.509C11.1748 19.509 10.8784 19.4635 10.5996 19.3795L10.6206 19.3853C10.4783 19.3352 10.3581 19.257 10.2589 19.1578C10.1189 19.0272 9.98944 18.8907 9.86811 18.7483L9.86228 18.7413C9.73044 18.5442 9.61495 18.3178 9.52744 18.0775L9.52044 18.0553C9.21128 17.3098 8.93128 16.4185 8.72828 15.498L8.70845 15.3883C8.38061 14.0817 8.04578 12.775 7.71445 11.4683C7.69345 11.3867 7.65961 11.3143 7.61295 11.2513L7.61411 11.2525C7.56395 11.1627 7.46828 11.102 7.35978 11.102C7.35745 11.102 7.35628 11.102 7.35395 11.102C7.22211 11.1148 7.11478 11.2035 7.07511 11.3225L7.07395 11.3248C6.96195 11.6795 6.88145 12.0412 6.78461 12.4005C6.39495 13.9032 6.01695 15.4105 5.61678 16.9097C5.49778 17.3565 5.30061 17.7765 5.15011 18.2163C4.98911 18.6375 4.71961 18.9863 4.37428 19.2383L4.36844 19.243C4.21095 19.3643 4.01845 19.446 3.80728 19.4705H3.80145C3.62178 19.495 3.41295 19.5078 3.20178 19.5078C3.13878 19.5078 3.07695 19.5067 3.01395 19.5043H3.02328C2.95445 19.5043 2.92995 19.4775 2.90778 19.411C2.53445 17.9931 2.158 16.5764 1.77845 15.1608C1.28767 13.3066 0.793779 11.4489 0.296779 9.58767L0.0191121 8.53533C0.0121121 8.50033 -0.0182212 8.45017 0.0541121 8.44317C0.176612 8.42567 0.317779 8.41633 0.461279 8.41633C0.926779 8.41633 1.36895 8.52017 1.76445 8.70567L1.74578 8.6975C2.01878 8.83983 2.22411 9.0825 2.31395 9.37533L2.31628 9.3835C2.51695 10.0368 2.66745 10.6972 2.83661 11.3563C3.22161 12.8442 3.60428 14.3321 3.98461 15.82C3.98811 15.8398 3.99395 15.8585 4.00095 15.876L3.99978 15.8748L4.01145 15.8725Z" fill="white"/>
<path d="M17.9004 19.5288C18.0159 19.355 18.1197 19.201 18.2247 19.0435C19.3447 17.3744 20.4647 15.7068 21.5847 14.0408C21.5976 14.0245 21.6057 14.0035 21.6057 13.9813C21.6057 13.9545 21.5952 13.9312 21.5766 13.9137C20.6479 12.5339 19.7204 11.1541 18.7941 9.77433L17.9541 8.51083C17.9424 8.491 17.9156 8.47233 17.9237 8.43383L18.4942 8.46883C18.8489 8.49217 19.1966 8.5155 19.5466 8.53417C19.8312 8.56917 20.0844 8.68467 20.2886 8.85617L20.2862 8.85383C20.4706 8.99383 20.6257 9.16184 20.7482 9.35084L20.7529 9.359C21.3572 10.276 21.9546 11.1977 22.5834 12.096C22.8634 12.4927 22.9836 12.4542 23.2811 12.1613C23.4281 11.9875 23.5634 11.7927 23.6801 11.5862L23.6894 11.5675C24.2097 10.7928 24.7231 10.0112 25.2539 9.2435C25.5491 8.8305 26.0029 8.54817 26.5244 8.48517L26.5326 8.484C26.8534 8.44783 27.2256 8.428 27.6012 8.428C27.7226 8.428 27.8439 8.43033 27.9641 8.43383H27.9466C28.0399 8.43383 27.9816 8.484 27.9629 8.51083C27.7039 8.89583 27.4472 9.282 27.1847 9.667C26.2358 11.0841 25.2877 12.4969 24.3404 13.9055C24.3241 13.9253 24.3136 13.9522 24.3136 13.9802C24.3136 14.0128 24.3264 14.042 24.3474 14.063C25.5498 15.8511 26.7511 17.6392 27.9512 19.4273C27.9676 19.4542 28.0049 19.481 27.9932 19.509C27.9816 19.537 27.9279 19.5253 27.8999 19.5253C27.7961 19.5288 27.6747 19.5312 27.5522 19.5312C27.2104 19.5312 26.8721 19.5148 26.5384 19.4845L26.5816 19.488C26.0869 19.4262 25.6552 19.1963 25.3379 18.8568L25.3367 18.8557C25.1816 18.669 25.0369 18.4613 24.9121 18.2408L24.9004 18.2198C24.3952 17.465 23.8947 16.709 23.3896 15.9495C23.3102 15.8258 23.2099 15.7232 23.0932 15.6438L23.0897 15.6415C23.0512 15.6065 22.9999 15.5855 22.9427 15.5855C22.8856 15.5855 22.8342 15.6065 22.7957 15.6427C22.7106 15.7022 22.6394 15.7757 22.5822 15.8597L22.5799 15.8632C21.9441 16.772 21.3549 17.7135 20.7377 18.6375C20.4449 19.0692 19.9922 19.3737 19.4661 19.4647L19.4544 19.4658C19.2047 19.509 18.9166 19.5323 18.6226 19.5323C18.5397 19.5323 18.4569 19.53 18.3752 19.5265H18.3869L17.9004 19.5288Z" fill="white"/>
<path d="M17.0789 10.2177V10.3682C17.0789 12.9271 17.0812 15.4859 17.0859 18.0448C17.0859 18.0588 17.087 18.074 17.087 18.0903C17.087 18.6153 16.7977 19.0738 16.3695 19.313L16.3625 19.3165C16.2132 19.4122 16.0347 19.4775 15.8434 19.4973H15.8375C15.6602 19.5172 15.456 19.5277 15.2484 19.5277C15.2367 19.5277 15.2239 19.5277 15.2122 19.5277H15.2145C15.0874 19.5277 15.0874 19.5277 15.0874 19.404C15.0874 18.0203 15.0874 16.6367 15.0804 15.253C15.0804 14.0887 15.0687 12.929 15.0804 11.7647C15.0909 11.5442 15.2145 11.3563 15.3942 11.2537L15.3977 11.2525C15.568 11.1405 15.7559 11.0658 15.9332 10.9667C16.2879 10.7952 16.59 10.6155 16.8747 10.4137L16.8549 10.4277C16.9202 10.3658 16.989 10.297 17.0812 10.2153L17.0789 10.2177Z" fill="white"/>
<path d="M15.0635 10.7123C15.0635 10.6983 15.0635 10.682 15.0635 10.6657C15.0635 10.3367 15.1055 10.0182 15.1849 9.71483L15.179 9.7405C15.284 9.36017 15.501 9.0405 15.7927 8.8095L15.7962 8.80717C16.0657 8.61933 16.3912 8.49217 16.7424 8.45367L16.7517 8.4525C16.8555 8.43267 16.9594 8.42567 17.0632 8.4105C17.1484 8.39417 17.1717 8.44083 17.1752 8.51433C17.1752 8.53067 17.1764 8.55167 17.1764 8.5715C17.1764 8.71033 17.1635 8.84683 17.139 8.97983L17.1414 8.96583C17.0644 9.436 16.8497 9.84667 16.5394 10.1652C16.362 10.332 16.1485 10.4627 15.9117 10.5432L15.9 10.5467C15.6294 10.6458 15.3949 10.7718 15.1825 10.9258L15.1907 10.92C15.1604 10.9433 15.1254 10.9888 15.0822 10.9667C15.039 10.9445 15.0624 10.8897 15.0589 10.8512C15.0554 10.8127 15.0624 10.7555 15.0624 10.7135L15.0635 10.7123Z" fill="white"/>
</svg>
