<svg width="28" height="28" viewBox="0 0 28 28" fill="none" xmlns="http://www.w3.org/2000/svg">
<path fill-rule="evenodd" clip-rule="evenodd" d="M0 13.9996C0 19.5411 3.22009 24.3301 7.89011 26.5991L1.21192 8.30225C0.43577 10.0427 0 11.9695 0 13.9996ZM23.4509 13.2934C23.4509 11.5626 22.8288 10.3647 22.2967 9.43281C21.5871 8.27865 20.9212 7.3021 20.9212 6.14882C20.9212 4.86165 21.8969 3.66374 23.2724 3.66374C23.3345 3.66374 23.3932 3.6716 23.4535 3.6751C20.9632 1.39303 17.6442 0 13.9997 0C9.10833 0 4.80583 2.50958 2.30238 6.30982C2.63139 6.32032 2.94114 6.32645 3.20365 6.32645C4.66757 6.32645 6.93477 6.14882 6.93477 6.14882C7.68905 6.10419 7.77829 7.21372 7.02401 7.3021C7.02401 7.3021 6.26537 7.39134 5.42184 7.43597L10.5198 22.6002L13.5841 13.4115L11.4035 7.43597C10.6493 7.39134 9.93436 7.3021 9.93436 7.3021C9.18009 7.25747 9.26847 6.10419 10.0236 6.14882C10.0236 6.14882 12.3354 6.32645 13.711 6.32645C15.1749 6.32645 17.4421 6.14882 17.4421 6.14882C18.1972 6.10419 18.2856 7.21372 17.5313 7.3021C17.5313 7.3021 16.7718 7.39134 15.9292 7.43597L20.9886 22.4847L22.386 17.819C22.9898 15.8817 23.4509 14.4913 23.4509 13.2934ZM26.2849 7.28312C26.3453 7.72938 26.3795 8.20716 26.3795 8.72255C26.3795 10.1427 26.1134 11.7396 25.3145 13.7373L21.0383 26.1006C25.2008 23.6741 28 19.1642 28 13.9998C28 11.5655 27.3779 9.27731 26.2849 7.28312ZM14.2456 15.2242L10.0446 27.43C11.2994 27.7993 12.6259 28.0005 13.9997 28.0005C15.6299 28.0005 17.1936 27.7188 18.6488 27.2069C18.612 27.1465 18.577 27.0835 18.549 27.0144L14.2456 15.2242Z" fill="#00759D"/>
</svg>
