<svg width="1080" height="1080" viewBox="0 0 1080 1080" fill="none" xmlns="http://www.w3.org/2000/svg">
<rect width="1080" height="1080" fill="white"/>
<g clip-path="url(#clip0_4725_26942)">
<path d="M0.385742 431.456L1080.14 221V655.835L0.385742 859.071V431.456Z" fill="#0C0C0C"/>
<path fill-rule="evenodd" clip-rule="evenodd" d="M214.226 389.61L0.386719 431.246V859.071L803.028 707.994L846.812 459.587H915.169L910.858 483.296C916.606 475.291 923.894 469.03 932.72 464.514C941.753 459.792 951.914 457.432 963.204 457.432C980.652 457.432 994.714 463.282 1005.39 474.983C1016.06 486.683 1021.4 502.9 1021.4 523.633C1021.4 531.434 1020.68 539.029 1019.24 546.419C1015.96 564.689 1010.01 580.597 1001.39 594.146C992.764 607.489 982.397 617.752 970.286 624.937C958.175 631.917 945.345 635.406 931.797 635.406C920.506 635.406 911.166 633.148 903.776 628.632C896.592 623.911 891.562 617.547 888.689 609.541L873.72 694.688L1080.15 655.834V221.01L285.697 375.694L236.552 633.251H168.195L172.505 609.541C166.758 617.547 159.368 623.911 150.336 628.632C141.509 633.148 131.45 635.406 120.16 635.406C102.711 635.406 88.6499 629.556 77.9756 617.855C67.3012 606.154 61.964 589.938 61.964 569.205C61.964 561.404 62.6825 553.809 64.1194 546.419C67.4038 528.149 73.3569 512.343 81.9785 499C90.6001 485.452 100.967 475.188 113.078 468.209C125.189 461.024 138.019 457.432 151.567 457.432C162.857 457.432 172.095 459.792 179.28 464.514C186.669 469.03 191.801 475.291 194.675 483.296L214.226 389.61ZM183.898 546.419C184.309 544.571 184.514 542.108 184.514 539.029C184.514 532.05 182.667 526.712 178.972 523.017C175.277 519.117 170.247 517.167 163.884 517.167C156.494 517.167 149.925 519.733 144.177 524.865C138.635 529.997 135.042 537.181 133.4 546.419C132.99 548.266 132.784 550.73 132.784 553.809C132.784 560.788 134.632 566.228 138.327 570.128C142.022 573.823 147.051 575.671 153.415 575.671C160.805 575.671 167.271 573.105 172.813 567.973C178.561 562.841 182.256 555.656 183.898 546.419ZM360.853 491.61C369.68 481.552 379.533 473.546 390.413 467.593C401.498 461.434 412.48 458.355 423.36 458.355L410.735 531.331H391.337C378.404 531.331 368.448 533.589 361.469 538.105C354.695 542.621 350.281 550.627 348.228 562.123L335.604 633.251H267.247L298.038 459.587H366.395L360.853 491.61ZM452.549 626.477C464.25 632.43 477.798 635.406 493.194 635.406C513.927 635.406 532.607 630.993 549.234 622.166C565.862 613.134 578.897 600.612 588.339 584.6C597.782 568.589 602.503 550.524 602.503 530.407C602.503 515.833 599.219 503.106 592.65 492.226C586.081 481.141 576.947 472.622 565.246 466.669C553.545 460.511 539.997 457.432 524.601 457.432C504.073 457.432 485.496 461.948 468.868 470.98C452.241 480.012 439.103 492.534 429.455 508.545C420.013 524.557 415.291 542.621 415.291 562.738C415.291 577.313 418.576 590.143 425.145 601.228C431.713 612.107 440.848 620.524 452.549 626.477ZM524.601 564.278C519.469 572.284 512.49 576.287 503.663 576.287C498.12 576.287 493.707 574.542 490.423 571.052C487.138 567.562 485.496 562.328 485.496 555.348C485.496 545.495 488.062 536.566 493.194 528.56C498.326 520.554 505.305 516.551 514.132 516.551C519.469 516.551 523.78 518.296 527.064 521.786C530.554 525.275 532.299 530.51 532.299 537.489C532.299 547.343 529.733 556.272 524.601 564.278ZM701.573 483.296C707.32 475.291 714.608 469.03 723.435 464.514C732.467 459.792 742.628 457.432 753.918 457.432C771.367 457.432 785.428 463.282 796.102 474.983C806.777 486.683 812.114 502.9 812.114 523.633C812.114 531.434 811.396 539.029 809.959 546.419C806.674 564.689 800.721 580.597 792.1 594.146C783.478 607.489 773.112 617.752 761 624.937C748.889 631.917 736.059 635.406 722.511 635.406C711.221 635.406 701.881 633.148 694.491 628.632C687.306 623.911 682.277 617.547 679.403 609.541L660.62 716.388H592.263L637.526 459.587H705.883L701.573 483.296ZM740.678 546.419C741.088 544.571 741.294 542.108 741.294 539.029C741.294 532.05 739.446 526.712 735.751 523.017C732.056 519.117 727.027 517.167 720.663 517.167C713.273 517.167 706.705 519.733 700.957 524.865C695.414 529.997 691.822 537.181 690.18 546.419C689.769 548.266 689.564 550.73 689.564 553.809C689.564 560.788 691.411 566.228 695.106 570.128C698.801 573.823 703.831 575.671 710.194 575.671C717.584 575.671 724.05 573.105 729.593 567.973C735.341 562.841 739.036 555.656 740.678 546.419ZM950.579 539.029C950.579 542.108 950.374 544.571 949.964 546.419C948.321 555.656 944.626 562.841 938.879 567.973C933.336 573.105 926.87 575.671 919.48 575.671C913.117 575.671 908.087 573.823 904.392 570.128C900.697 566.228 898.85 560.788 898.85 553.809C898.85 550.73 899.055 548.266 899.466 546.419C901.108 537.181 904.7 529.997 910.243 524.865C915.99 519.733 922.559 517.167 929.949 517.167C936.313 517.167 941.342 519.117 945.037 523.017C948.732 526.712 950.579 532.05 950.579 539.029Z" fill="url(#paint0_linear_4725_26942)"/>
</g>
<defs>
<linearGradient id="paint0_linear_4725_26942" x1="0.38673" y1="879.149" x2="1149.65" y2="430.144" gradientUnits="userSpaceOnUse">
<stop stop-color="#F2D9D4"/>
<stop offset="0.125" stop-color="#EDE2CD"/>
<stop offset="0.25" stop-color="#D5F3D9"/>
<stop offset="0.38" stop-color="#EECEE4"/>
<stop offset="0.49" stop-color="#EDE2CD"/>
<stop offset="0.655" stop-color="#CCEBE7"/>
<stop offset="1" stop-color="#D6D6F2"/>
</linearGradient>
<clipPath id="clip0_4725_26942">
<rect x="1" y="220.5" width="1079" height="639" fill="white"/>
</clipPath>
</defs>
</svg>
