<svg width="17" height="16" viewBox="0 0 17 16" fill="none" xmlns="http://www.w3.org/2000/svg">
<path d="M14.5 3.98665C12.28 3.76665 10.0467 3.65332 7.82 3.65332C6.5 3.65332 5.18 3.71999 3.86 3.85332L2.5 3.98665" stroke="#F3B3B3" stroke-linecap="round" stroke-linejoin="round"/>
<path d="M6.16663 3.31325L6.31329 2.43992C6.41996 1.80659 6.49996 1.33325 7.62663 1.33325H9.37329C10.5 1.33325 10.5866 1.83325 10.6866 2.44659L10.8333 3.31325" stroke="#F3B3B3" stroke-linecap="round" stroke-linejoin="round"/>
<path d="M13.0667 6.09326L12.6334 12.8066C12.56 13.8533 12.5 14.6666 10.64 14.6666H6.36002C4.50002 14.6666 4.44002 13.8533 4.36668 12.8066L3.93335 6.09326" stroke="#F3B3B3" stroke-linecap="round" stroke-linejoin="round"/>
<path d="M7.38672 11H9.60672" stroke="#F3B3B3" stroke-linecap="round" stroke-linejoin="round"/>
<path d="M6.83337 8.33325H10.1667" stroke="#F3B3B3" stroke-linecap="round" stroke-linejoin="round"/>
</svg>
