<svg width="56" height="56" viewBox="0 0 56 56" fill="none" xmlns="http://www.w3.org/2000/svg">
<rect x="0.333336" y="0.5" width="55" height="55" rx="27.5" fill="white"/>
<g clip-path="url(#clip0_5_15106)">
<path d="M33.5685 13.764C33.509 13.6975 31.3653 13.7902 29.4998 15.815C27.6343 17.838 27.9213 20.1585 27.9633 20.218C28.0053 20.2775 30.6233 20.3702 32.2945 18.0165C33.9658 15.6627 33.628 13.8322 33.5685 13.764ZM39.368 34.2967C39.284 34.1287 35.2993 32.1372 35.6703 28.3082C36.0413 24.4792 38.6015 23.4275 38.6418 23.3137C38.682 23.2 37.597 21.9312 36.4473 21.289C35.6029 20.8366 34.6687 20.5772 33.712 20.5295C33.523 20.5242 32.8668 20.3632 31.5175 20.7325C30.6285 20.9757 28.6248 21.7632 28.0735 21.7947C27.5205 21.8262 25.8755 20.8812 24.1063 20.631C22.974 20.4122 21.7735 20.8602 20.9143 21.205C20.0568 21.548 18.4258 22.5245 17.2847 25.1197C16.1437 27.7132 16.7405 31.8222 17.1675 33.0997C17.5945 34.3772 18.2612 36.4667 19.3953 37.9927C20.4032 39.7147 21.7403 40.91 22.2985 41.316C22.8568 41.722 24.4318 41.9915 25.5238 41.4332C26.4023 40.8942 27.9878 40.5845 28.6143 40.6072C29.239 40.63 30.471 40.8767 31.7328 41.5505C32.732 41.8952 33.677 41.7517 34.6238 41.3667C35.5705 40.98 36.9408 39.5135 38.5403 36.5402C39.1469 35.1577 39.4228 34.4099 39.368 34.2967Z" fill="#0C0C0C"/>
<path d="M33.5685 13.764C33.509 13.6975 31.3653 13.7902 29.4998 15.815C27.6343 17.838 27.9213 20.1585 27.9633 20.218C28.0053 20.2775 30.6233 20.3702 32.2945 18.0165C33.9658 15.6627 33.628 13.8322 33.5685 13.764ZM39.368 34.2967C39.284 34.1287 35.2993 32.1372 35.6703 28.3082C36.0413 24.4792 38.6015 23.4275 38.6418 23.3137C38.682 23.2 37.597 21.9312 36.4473 21.289C35.6029 20.8366 34.6687 20.5772 33.712 20.5295C33.523 20.5242 32.8668 20.3632 31.5175 20.7325C30.6285 20.9757 28.6248 21.7632 28.0735 21.7947C27.5205 21.8262 25.8755 20.8812 24.1063 20.631C22.974 20.4122 21.7735 20.8602 20.9143 21.205C20.0568 21.548 18.4258 22.5245 17.2847 25.1197C16.1437 27.7132 16.7405 31.8222 17.1675 33.0997C17.5945 34.3772 18.2612 36.4667 19.3953 37.9927C20.4032 39.7147 21.7403 40.91 22.2985 41.316C22.8568 41.722 24.4318 41.9915 25.5238 41.4332C26.4023 40.8942 27.9878 40.5845 28.6143 40.6072C29.239 40.63 30.471 40.8767 31.7328 41.5505C32.732 41.8952 33.677 41.7517 34.6238 41.3667C35.5705 40.98 36.9408 39.5135 38.5403 36.5402C39.1469 35.1577 39.4228 34.4099 39.368 34.2967Z" fill="#0C0C0C"/>
</g>
<defs>
<clipPath id="clip0_5_15106">
<rect width="28" height="28" fill="white" transform="translate(14 13.75)"/>
</clipPath>
</defs>
</svg>
