<svg width="55" height="56" viewBox="0 0 55 56" fill="none" xmlns="http://www.w3.org/2000/svg">
<rect y="0.5" width="55" height="55" rx="27.5" fill="white"/>
<path d="M38.4397 25.4651H37.5V25.4167H27V30.0833H33.5934C32.6315 32.7999 30.0467 34.75 27 34.75C23.1342 34.75 20 31.6157 20 27.75C20 23.8842 23.1342 20.75 27 20.75C28.7844 20.75 30.4078 21.4232 31.6439 22.5227L34.9438 19.2228C32.8602 17.2809 30.073 16.0833 27 16.0833C20.5571 16.0833 15.3333 21.3071 15.3333 27.75C15.3333 34.1929 20.5571 39.4167 27 39.4167C33.4429 39.4167 38.6667 34.1929 38.6667 27.75C38.6667 26.9677 38.5862 26.2042 38.4397 25.4651Z" fill="#FFC107"/>
<path d="M16.6785 22.3197L20.5116 25.1308C21.5487 22.563 24.0606 20.75 27 20.75C28.7844 20.75 30.4078 21.4232 31.6439 22.5227L34.9438 19.2228C32.8602 17.2809 30.073 16.0833 27 16.0833C22.5188 16.0833 18.6327 18.6132 16.6785 22.3197Z" fill="#FF3D00"/>
<path d="M27 39.4167C30.0135 39.4167 32.7517 38.2634 34.8219 36.388L31.2111 33.3325C30.0004 34.2532 28.521 34.7512 27 34.75C23.9655 34.75 21.3889 32.8151 20.4183 30.1148L16.6138 33.0461C18.5446 36.8243 22.4658 39.4167 27 39.4167Z" fill="#4CAF50"/>
<path d="M38.4398 25.4651H37.5V25.4167H27V30.0833H33.5934C33.1333 31.3762 32.3045 32.506 31.2093 33.3331L31.2111 33.3319L34.8219 36.3874C34.5664 36.6196 38.6667 33.5833 38.6667 27.75C38.6667 26.9678 38.5862 26.2042 38.4398 25.4651Z" fill="#1976D2"/>
</svg>
