<svg width="24" height="24" viewBox="0 0 24 24" fill="none" xmlns="http://www.w3.org/2000/svg">
<path d="M12.0196 2.91C8.7096 2.91 6.0196 5.6 6.0196 8.91V11.8C6.0196 12.41 5.7596 13.34 5.4496 13.86L4.2996 15.77C3.5896 16.95 4.0796 18.26 5.3796 18.7C9.6896 20.14 14.3396 20.14 18.6496 18.7C19.8596 18.3 20.3896 16.87 19.7296 15.77L18.5796 13.86C18.2796 13.34 18.0196 12.41 18.0196 11.8V8.91C18.0196 5.61 15.3196 2.91 12.0196 2.91Z" stroke="#F5F5F5" stroke-width="1.5" stroke-miterlimit="10" stroke-linecap="round"/>
<path d="M17.502 9.45651C19.1588 9.45651 20.502 8.11337 20.502 6.45651C20.502 4.79966 19.1588 3.45651 17.502 3.45651C15.8451 3.45651 14.502 4.79966 14.502 6.45651C14.502 8.11337 15.8451 9.45651 17.502 9.45651Z" fill="#F04141" stroke="#1B1B1B" stroke-linecap="round" stroke-linejoin="round"/>
<path d="M13.8699 3.2C13.5599 3.11 13.2399 3.04 12.9099 3C11.9499 2.88 11.0299 2.95 10.1699 3.2C10.4599 2.46 11.1799 1.94 12.0199 1.94C12.8599 1.94 13.5799 2.46 13.8699 3.2Z" stroke="#F5F5F5" stroke-width="1.5" stroke-miterlimit="10" stroke-linecap="round" stroke-linejoin="round"/>
<path d="M15.0195 19.06C15.0195 20.71 13.6695 22.06 12.0195 22.06C11.1995 22.06 10.4395 21.72 9.89953 21.18C9.35953 20.64 9.01953 19.88 9.01953 19.06" stroke="#F5F5F5" stroke-width="1.5" stroke-miterlimit="10"/>
</svg>
