<svg width="40" height="41" viewBox="0 0 40 41" fill="none" xmlns="http://www.w3.org/2000/svg">
<rect y="0.816406" width="40" height="40" rx="20" fill="#1B1B1B"/>
<path d="M18.75 11.2664C19.45 10.6764 20.58 10.6764 21.26 11.2664L22.84 12.6164C23.14 12.8664 23.71 13.0764 24.11 13.0764H25.81C26.87 13.0764 27.74 13.9464 27.74 15.0064V16.7064C27.74 17.1064 27.95 17.6664 28.2 17.9664L29.55 19.5464C30.14 20.2464 30.14 21.3764 29.55 22.0564L28.2 23.6364C27.95 23.9364 27.74 24.4964 27.74 24.8964V26.5964C27.74 27.6564 26.87 28.5264 25.81 28.5264H24.11C23.71 28.5264 23.15 28.7364 22.85 28.9864L21.27 30.3364C20.57 30.9264 19.44 30.9264 18.76 30.3364L17.18 28.9864C16.88 28.7364 16.31 28.5264 15.92 28.5264H14.17C13.11 28.5264 12.24 27.6564 12.24 26.5964V24.8864C12.24 24.4964 12.04 23.9264 11.79 23.6364L10.44 22.0464C9.86 21.3564 9.86 20.2364 10.44 19.5464L11.79 17.9564C12.04 17.6564 12.24 17.0964 12.24 16.7064V15.0164C12.24 13.9564 13.11 13.0864 14.17 13.0864H15.9C16.3 13.0864 16.86 12.8764 17.16 12.6264L18.75 11.2664Z" stroke="#14C7FF" stroke-width="1.5" stroke-linecap="round" stroke-linejoin="round"/>
<path d="M20 16.9464V21.7764" stroke="#14C7FF" stroke-width="1.5" stroke-linecap="round" stroke-linejoin="round"/>
<path d="M19.9945 24.8164H20.0035" stroke="#14C7FF" stroke-width="2" stroke-linecap="round" stroke-linejoin="round"/>
</svg>
